%
M48
M72
T01C0.0236
T02C0.0320
T03C0.0394
T04C0.0400
T05C0.0440
T06C0.0520
T07C0.0550
T08C0.0560
T09C0.1260
%
T01
X17580Y15980
T02
X18830Y9380
X18830Y6380
X18580Y3630
X18080Y2880
X19080Y2880
T03
X12830Y11880
X6830Y11880
X6830Y19880
X11830Y19880
X12830Y19880
T04
X13330Y2880
X15330Y2880
X9580Y2880
X7580Y2880
T05
X6080Y3880
X6080Y7880
X17580Y9380
X17580Y5380
T06
X13930Y5030
X13930Y9730
X14980Y13280
X14980Y18080
X17330Y18880
X19680Y18080
X19680Y13280
X9130Y9730
X8330Y7380
X9130Y5030
T07
X4080Y5380
X4080Y7380
X4080Y9380
X20580Y9380
X20580Y7380
X20580Y5380
T08
X4080Y12130
X4080Y18130
T09
X3580Y2880
X3580Y20380
X21080Y20380
X21080Y2880
M30
