G75*
%MOIN*%
%OFA0B0*%
%FSLAX24Y24*%
%IPPOS*%
%LPD*%
%AMOC8*
5,1,8,0,0,1.08239X$1,22.5*
%
%ADD10C,0.0000*%
%ADD11C,0.1340*%
%ADD12R,0.0940X0.0940*%
%ADD13C,0.0860*%
%ADD14C,0.0905*%
%ADD15C,0.0740*%
%ADD16OC8,0.0600*%
%ADD17R,0.0980X0.0980*%
%ADD18C,0.1080*%
%ADD19OC8,0.1080*%
%ADD20R,0.0476X0.0476*%
D10*
X002580Y001880D02*
X002580Y021565D01*
X022265Y021565D01*
X022265Y001880D01*
X002580Y001880D01*
X002950Y002880D02*
X002952Y002930D01*
X002958Y002980D01*
X002968Y003029D01*
X002982Y003077D01*
X002999Y003124D01*
X003020Y003169D01*
X003045Y003213D01*
X003073Y003254D01*
X003105Y003293D01*
X003139Y003330D01*
X003176Y003364D01*
X003216Y003394D01*
X003258Y003421D01*
X003302Y003445D01*
X003348Y003466D01*
X003395Y003482D01*
X003443Y003495D01*
X003493Y003504D01*
X003542Y003509D01*
X003593Y003510D01*
X003643Y003507D01*
X003692Y003500D01*
X003741Y003489D01*
X003789Y003474D01*
X003835Y003456D01*
X003880Y003434D01*
X003923Y003408D01*
X003964Y003379D01*
X004003Y003347D01*
X004039Y003312D01*
X004071Y003274D01*
X004101Y003234D01*
X004128Y003191D01*
X004151Y003147D01*
X004170Y003101D01*
X004186Y003053D01*
X004198Y003004D01*
X004206Y002955D01*
X004210Y002905D01*
X004210Y002855D01*
X004206Y002805D01*
X004198Y002756D01*
X004186Y002707D01*
X004170Y002659D01*
X004151Y002613D01*
X004128Y002569D01*
X004101Y002526D01*
X004071Y002486D01*
X004039Y002448D01*
X004003Y002413D01*
X003964Y002381D01*
X003923Y002352D01*
X003880Y002326D01*
X003835Y002304D01*
X003789Y002286D01*
X003741Y002271D01*
X003692Y002260D01*
X003643Y002253D01*
X003593Y002250D01*
X003542Y002251D01*
X003493Y002256D01*
X003443Y002265D01*
X003395Y002278D01*
X003348Y002294D01*
X003302Y002315D01*
X003258Y002339D01*
X003216Y002366D01*
X003176Y002396D01*
X003139Y002430D01*
X003105Y002467D01*
X003073Y002506D01*
X003045Y002547D01*
X003020Y002591D01*
X002999Y002636D01*
X002982Y002683D01*
X002968Y002731D01*
X002958Y002780D01*
X002952Y002830D01*
X002950Y002880D01*
X002950Y020380D02*
X002952Y020430D01*
X002958Y020480D01*
X002968Y020529D01*
X002982Y020577D01*
X002999Y020624D01*
X003020Y020669D01*
X003045Y020713D01*
X003073Y020754D01*
X003105Y020793D01*
X003139Y020830D01*
X003176Y020864D01*
X003216Y020894D01*
X003258Y020921D01*
X003302Y020945D01*
X003348Y020966D01*
X003395Y020982D01*
X003443Y020995D01*
X003493Y021004D01*
X003542Y021009D01*
X003593Y021010D01*
X003643Y021007D01*
X003692Y021000D01*
X003741Y020989D01*
X003789Y020974D01*
X003835Y020956D01*
X003880Y020934D01*
X003923Y020908D01*
X003964Y020879D01*
X004003Y020847D01*
X004039Y020812D01*
X004071Y020774D01*
X004101Y020734D01*
X004128Y020691D01*
X004151Y020647D01*
X004170Y020601D01*
X004186Y020553D01*
X004198Y020504D01*
X004206Y020455D01*
X004210Y020405D01*
X004210Y020355D01*
X004206Y020305D01*
X004198Y020256D01*
X004186Y020207D01*
X004170Y020159D01*
X004151Y020113D01*
X004128Y020069D01*
X004101Y020026D01*
X004071Y019986D01*
X004039Y019948D01*
X004003Y019913D01*
X003964Y019881D01*
X003923Y019852D01*
X003880Y019826D01*
X003835Y019804D01*
X003789Y019786D01*
X003741Y019771D01*
X003692Y019760D01*
X003643Y019753D01*
X003593Y019750D01*
X003542Y019751D01*
X003493Y019756D01*
X003443Y019765D01*
X003395Y019778D01*
X003348Y019794D01*
X003302Y019815D01*
X003258Y019839D01*
X003216Y019866D01*
X003176Y019896D01*
X003139Y019930D01*
X003105Y019967D01*
X003073Y020006D01*
X003045Y020047D01*
X003020Y020091D01*
X002999Y020136D01*
X002982Y020183D01*
X002968Y020231D01*
X002958Y020280D01*
X002952Y020330D01*
X002950Y020380D01*
X020450Y020380D02*
X020452Y020430D01*
X020458Y020480D01*
X020468Y020529D01*
X020482Y020577D01*
X020499Y020624D01*
X020520Y020669D01*
X020545Y020713D01*
X020573Y020754D01*
X020605Y020793D01*
X020639Y020830D01*
X020676Y020864D01*
X020716Y020894D01*
X020758Y020921D01*
X020802Y020945D01*
X020848Y020966D01*
X020895Y020982D01*
X020943Y020995D01*
X020993Y021004D01*
X021042Y021009D01*
X021093Y021010D01*
X021143Y021007D01*
X021192Y021000D01*
X021241Y020989D01*
X021289Y020974D01*
X021335Y020956D01*
X021380Y020934D01*
X021423Y020908D01*
X021464Y020879D01*
X021503Y020847D01*
X021539Y020812D01*
X021571Y020774D01*
X021601Y020734D01*
X021628Y020691D01*
X021651Y020647D01*
X021670Y020601D01*
X021686Y020553D01*
X021698Y020504D01*
X021706Y020455D01*
X021710Y020405D01*
X021710Y020355D01*
X021706Y020305D01*
X021698Y020256D01*
X021686Y020207D01*
X021670Y020159D01*
X021651Y020113D01*
X021628Y020069D01*
X021601Y020026D01*
X021571Y019986D01*
X021539Y019948D01*
X021503Y019913D01*
X021464Y019881D01*
X021423Y019852D01*
X021380Y019826D01*
X021335Y019804D01*
X021289Y019786D01*
X021241Y019771D01*
X021192Y019760D01*
X021143Y019753D01*
X021093Y019750D01*
X021042Y019751D01*
X020993Y019756D01*
X020943Y019765D01*
X020895Y019778D01*
X020848Y019794D01*
X020802Y019815D01*
X020758Y019839D01*
X020716Y019866D01*
X020676Y019896D01*
X020639Y019930D01*
X020605Y019967D01*
X020573Y020006D01*
X020545Y020047D01*
X020520Y020091D01*
X020499Y020136D01*
X020482Y020183D01*
X020468Y020231D01*
X020458Y020280D01*
X020452Y020330D01*
X020450Y020380D01*
X020450Y002880D02*
X020452Y002930D01*
X020458Y002980D01*
X020468Y003029D01*
X020482Y003077D01*
X020499Y003124D01*
X020520Y003169D01*
X020545Y003213D01*
X020573Y003254D01*
X020605Y003293D01*
X020639Y003330D01*
X020676Y003364D01*
X020716Y003394D01*
X020758Y003421D01*
X020802Y003445D01*
X020848Y003466D01*
X020895Y003482D01*
X020943Y003495D01*
X020993Y003504D01*
X021042Y003509D01*
X021093Y003510D01*
X021143Y003507D01*
X021192Y003500D01*
X021241Y003489D01*
X021289Y003474D01*
X021335Y003456D01*
X021380Y003434D01*
X021423Y003408D01*
X021464Y003379D01*
X021503Y003347D01*
X021539Y003312D01*
X021571Y003274D01*
X021601Y003234D01*
X021628Y003191D01*
X021651Y003147D01*
X021670Y003101D01*
X021686Y003053D01*
X021698Y003004D01*
X021706Y002955D01*
X021710Y002905D01*
X021710Y002855D01*
X021706Y002805D01*
X021698Y002756D01*
X021686Y002707D01*
X021670Y002659D01*
X021651Y002613D01*
X021628Y002569D01*
X021601Y002526D01*
X021571Y002486D01*
X021539Y002448D01*
X021503Y002413D01*
X021464Y002381D01*
X021423Y002352D01*
X021380Y002326D01*
X021335Y002304D01*
X021289Y002286D01*
X021241Y002271D01*
X021192Y002260D01*
X021143Y002253D01*
X021093Y002250D01*
X021042Y002251D01*
X020993Y002256D01*
X020943Y002265D01*
X020895Y002278D01*
X020848Y002294D01*
X020802Y002315D01*
X020758Y002339D01*
X020716Y002366D01*
X020676Y002396D01*
X020639Y002430D01*
X020605Y002467D01*
X020573Y002506D01*
X020545Y002547D01*
X020520Y002591D01*
X020499Y002636D01*
X020482Y002683D01*
X020468Y002731D01*
X020458Y002780D01*
X020452Y002830D01*
X020450Y002880D01*
D11*
X021080Y002880D03*
X021080Y020380D03*
X003580Y020380D03*
X003580Y002880D03*
D12*
X006830Y011880D03*
X012830Y011880D03*
X012830Y019880D03*
X011830Y019880D03*
X006830Y019880D03*
D13*
X014980Y018470D02*
X014980Y017690D01*
X017330Y018490D02*
X017330Y019270D01*
X019680Y018470D02*
X019680Y017690D01*
X019680Y013670D02*
X019680Y012890D01*
X014980Y012890D02*
X014980Y013670D01*
X014320Y009730D02*
X013540Y009730D01*
X009520Y009730D02*
X008740Y009730D01*
X008720Y007380D02*
X007940Y007380D01*
X008740Y005030D02*
X009520Y005030D01*
X013540Y005030D02*
X014320Y005030D01*
D14*
X020168Y005380D02*
X020993Y005380D01*
X020993Y007380D02*
X020168Y007380D01*
X020168Y009380D02*
X020993Y009380D01*
X004493Y009380D02*
X003668Y009380D01*
X003668Y007380D02*
X004493Y007380D01*
X004493Y005380D02*
X003668Y005380D01*
D15*
X006080Y003880D03*
X006080Y007880D03*
X017580Y009380D03*
X017580Y005380D03*
D16*
X018830Y006380D03*
X018580Y003630D03*
X018080Y002880D03*
X019080Y002880D03*
X018830Y009380D03*
D17*
X004080Y012130D03*
X004080Y018130D03*
D18*
X009580Y002880D03*
X013330Y002880D03*
D19*
X015330Y002880D03*
X007580Y002880D03*
D20*
X017580Y015980D03*
M02*
